<svg width="1064" height="759" viewBox="0 0 1064 759" version="1.1" xmlns="http://www.w3.org/2000/svg" xmlns:xlink="http://www.w3.org/1999/xlink">
<title>Group</title>
<desc>Created using Figma</desc>
<g id="Canvas" transform="translate(-5022 -275)">
<g id="Group">
<g id="Vector">
<use xlink:href="#path0_fill" transform="translate(5022 275)"/>
</g>
</g>
</g>
<defs>
<path id="path0_fill" d="M 0 578.176C 0 575.756 0 573.337 0 571.103C 7.63604 571.848 15.4583 572.406 22.5356 576.315C 23.2806 576.687 24.2118 577.245 24.9568 576.315C 25.5155 575.57 24.9568 574.826 24.7706 574.267C 24.3981 572.965 22.9081 571.475 24.3981 570.173C 25.888 568.87 27.5642 570.173 29.0542 570.545C 29.7992 570.731 30.3579 571.103 31.1029 571.476C 36.504 574.081 41.9051 576.687 47.3062 579.107C 52.1485 581.154 56.9909 583.202 61.8333 585.063C 62.9507 585.435 64.2544 586.366 65.1857 585.435C 66.3031 584.504 65.1857 583.202 64.9994 582.085C 64.8132 580.596 64.4407 579.107 64.0682 577.804C 63.882 576.687 63.5095 575.756 64.8132 575.012C 65.7444 574.64 66.4894 575.384 67.2344 575.756C 67.6068 575.943 67.7931 576.501 68.1656 576.687C 79.154 584.132 90.7012 588.413 104.297 586.924C 113.051 585.807 121.804 585.249 130.371 583.76C 142.663 581.526 154.956 581.713 167.248 581.154C 173.208 580.968 179.167 580.224 184.941 579.665C 191.46 579.107 197.978 578.921 204.497 579.665C 213.995 580.596 222.749 583.76 231.316 587.669C 236.158 589.716 240.628 592.322 244.912 595.3C 250.685 599.395 256.273 603.862 262.046 608.143C 264.654 610.004 267.634 611.679 271.172 613.727C 270.614 607.957 270.427 602.931 270.986 598.092C 271.359 595.486 270.614 593.625 269.31 591.391C 263.164 580.968 258.322 569.987 257.949 557.516C 257.949 556.027 257.577 554.538 256.645 553.235C 250.685 544.301 245.657 534.808 240.442 525.502C 234.482 514.707 229.081 503.539 224.984 491.813C 221.631 481.762 221.445 471.897 225.729 462.219C 229.081 454.587 232.992 447.142 237.835 440.442C 242.118 434.486 246.588 428.716 252.175 424.063C 263.536 414.57 276.387 407.869 290.728 403.961C 293.708 403.216 295.198 401.727 295.757 398.749C 297.992 389.257 302.089 380.509 308.235 372.878C 312.146 368.038 316.616 363.943 322.39 361.524C 331.888 357.429 341.2 353.148 351.258 350.914C 355.541 349.984 355.541 349.798 354.796 345.517C 353.306 337.327 350.885 329.324 350.14 320.948C 349.581 311.455 348.836 301.963 350.513 292.47C 351.071 289.306 351.816 285.956 350.885 282.792C 350.699 281.861 350.885 281.117 351.258 280.186C 353.12 274.974 352.003 270.321 349.023 265.854C 343.435 258.037 339.338 249.475 337.848 239.796C 337.475 238.121 336.544 235.888 338.593 234.957C 340.642 234.026 341.573 236.26 342.69 237.563C 346.788 242.216 352.003 245.566 356.659 249.289C 358.521 250.778 359.452 250.219 360.011 247.986C 360.197 247.428 360.197 246.869 360.197 246.125C 360.197 242.588 360.942 239.052 361.874 235.515C 362.991 231.979 362.805 228.443 361.315 225.092C 360.384 222.859 360.011 220.439 359.639 218.206C 359.452 217.275 359.825 216.344 360.756 215.972C 361.501 215.6 362.246 215.972 362.805 216.53C 363.177 216.903 363.364 217.089 363.736 217.461C 366.343 219.695 366.716 219.508 368.02 216.344C 370.441 210.202 373.607 204.246 377.332 198.662C 384.595 187.681 392.79 177.444 402.289 168.323C 407.131 163.67 411.601 158.645 417.188 154.922C 428.735 147.291 440.283 139.66 451.644 131.842C 454.623 129.795 456.113 127.375 455.927 123.653C 455.555 117.883 455.182 112.113 454.996 106.343C 454.251 90.7082 456.3 75.4458 461.887 60.7417C 466.171 49.5741 469.896 38.0342 473.807 26.6804C 475.297 22.5856 475.855 18.3046 474.179 14.0237C 472.689 10.3012 473.993 6.95087 476.787 4.34509C 481.07 0.250283 486.099 -0.680354 491.686 0.436411C 501.371 2.29769 510.124 6.20636 518.319 11.6041C 523.906 15.1405 528.563 19.7937 533.591 23.8885C 543.648 32.0781 552.03 41.7567 559.107 52.366C 564.88 60.9278 569.35 70.4203 575.496 78.9822C 577.173 81.4019 578.849 82.3325 581.829 81.7741C 586.485 81.0296 591.327 80.4712 595.983 80.4712C 609.207 80.2851 622.43 78.0516 635.653 77.1209C 646.456 76.3764 657.444 75.2597 668.246 75.4458C 679.421 75.6319 690.596 75.4458 701.584 77.6793C 709.22 79.1683 717.229 79.7267 724.865 81.9603C 732.687 84.3799 740.323 86.9857 747.959 89.9637C 750.753 91.0805 752.615 90.7082 754.664 88.4747C 756.899 86.0551 758.947 83.4493 761.555 81.4019C 768.446 76.0042 774.219 69.3036 779.993 62.603C 784.277 57.7637 788.933 52.9244 794.706 49.7602C 799.921 46.9683 805.322 44.1764 810.537 41.3845C 814.262 39.3371 817.987 37.848 822.084 36.9174C 826.368 35.9868 830.465 35.0561 834.749 33.7532C 838.102 32.8226 841.454 32.4503 844.993 32.6365C 851.139 32.8226 853.746 35.8006 853.187 42.129C 853.001 44.3625 852.442 46.596 852.442 48.8296C 852.815 56.833 854.305 64.4643 856.912 71.9094C 858.402 76.3764 859.52 80.8435 859.706 85.4967C 860.078 91.0805 860.451 96.8504 861.01 102.434C 861.941 112.113 863.058 121.978 862.5 131.842C 862.127 139.288 860.637 146.36 858.216 153.247C 856.912 156.97 857.471 159.203 860.265 161.809C 866.783 167.951 873.115 174.093 879.82 180.049C 892.671 191.589 903.101 205.177 912.599 219.508C 918 227.512 922.657 235.888 927.871 244.077C 935.508 255.989 940.909 268.832 943.143 282.792C 945.192 295.262 946.496 307.919 943.888 320.576C 943.702 321.879 943.143 323.181 944.075 324.298C 944.82 324.671 945.378 324.484 945.937 324.298C 950.221 322.623 954.132 320.017 957.671 317.225C 962.513 313.317 967.728 309.78 972.384 305.499C 973.315 304.755 974.06 303.638 975.55 304.383C 977.226 305.127 976.668 306.616 976.481 307.919C 976.109 310.897 975.364 313.689 974.433 316.667C 974.06 317.784 973.874 319.087 974.991 319.831C 975.923 320.576 977.04 319.831 977.971 319.459C 983.372 317.225 988.215 314.061 993.057 310.897C 994.175 310.153 995.292 308.664 996.596 309.78C 998.272 311.083 996.596 312.386 996.037 313.689C 995.851 314.061 995.665 314.434 995.292 314.806C 991.381 319.831 988.587 325.787 984.49 330.627C 983.931 331.371 982.814 331.929 983.745 333.605C 991.753 330.999 999.948 328.951 1006.84 323.74C 1007.58 323.181 1008.33 322.809 1009.26 322.623C 1010.38 322.251 1011.12 322.995 1010.94 324.112C 1010.94 325.043 1010.56 326.16 1010.01 327.09C 1008.14 330.999 1006.47 334.908 1004.23 338.63C 1000.13 346.075 995.851 353.334 991.567 360.779C 989.891 363.943 990.263 365.06 993.243 366.921C 994.361 367.666 995.478 367.852 996.596 368.038C 1008.14 370.272 1018.76 375.111 1029.19 379.95C 1036.64 383.301 1043.53 387.768 1049.86 393.165C 1053.03 395.957 1056.19 399.308 1059.55 401.541C 1065.32 405.264 1070.35 409.917 1075.94 413.826C 1081.9 418.107 1085.43 424.435 1086.92 431.694C 1087.11 432.624 1087.11 433.555 1087.11 434.3C 1087.11 435.416 1086.92 436.347 1085.62 436.905C 1084.5 437.278 1083.57 436.905 1082.83 436.161C 1081.71 434.858 1080.41 433.555 1079.47 432.066C 1076.49 427.785 1072.02 424.807 1068.3 421.271C 1067.37 420.526 1066.25 419.782 1065.32 421.643C 1064.39 423.69 1062.53 424.621 1060.48 425.365C 1058.06 426.482 1057.87 427.413 1059.73 429.274C 1060.48 430.019 1061.41 430.577 1062.15 431.322C 1066.07 434.672 1070.16 438.022 1073.89 441.559C 1081.15 448.631 1085.99 457.007 1087.3 467.244C 1087.67 470.036 1087.67 472.828 1086.55 475.62C 1085.81 477.481 1084.5 477.667 1083.2 476.178C 1082.64 475.62 1082.27 475.061 1081.9 474.317C 1079.47 470.036 1076.12 466.314 1073.51 462.219C 1071.84 459.613 1071.28 459.613 1069.23 461.846C 1067.55 463.708 1065.88 465.197 1063.27 465.569C 1061.04 465.941 1061.04 467.058 1061.97 468.733C 1064.02 471.711 1065.69 474.689 1067 478.226C 1067.74 480.645 1068.67 483.065 1069.79 485.298C 1073.51 491.813 1075.38 499.072 1076.31 506.517C 1076.49 508.192 1076.49 509.867 1076.12 511.356C 1075.94 512.845 1074.63 513.218 1073.51 512.101C 1072.77 511.356 1072.21 510.426 1071.65 509.495C 1068.86 505.214 1066.07 500.933 1063.27 496.838C 1062.71 495.908 1062.34 494.605 1060.66 494.605C 1060.48 495.163 1060.11 495.722 1059.92 496.094C 1056.57 501.678 1050.42 503.725 1044.46 501.119C 1041.48 499.816 1038.5 498.327 1035.89 496.28C 1031.8 493.116 1028.63 489.207 1025.65 485.112C 1023.97 482.879 1022.67 480.273 1020.25 478.598C 1016.52 475.992 1012.61 473.386 1008.89 470.781C 1007.03 469.664 1005.16 468.919 1002.93 469.292C 999.576 469.664 998.086 472.27 999.203 475.434C 999.762 477.109 1000.88 478.598 1002.18 479.901C 1005.54 483.623 1007.03 487.904 1005.35 492.744C 1004.6 495.349 1005.54 497.025 1007.58 498.514C 1011.12 501.119 1014.48 503.725 1018.2 505.959C 1020.81 507.448 1023.42 508.937 1025.65 510.798C 1027.14 511.915 1026.77 513.59 1024.9 513.962C 1023.97 514.148 1023.04 514.148 1022.3 513.962C 1013.36 512.287 1004.79 510.053 997.899 503.911C 996.596 502.794 995.292 502.236 993.43 502.608C 989.332 503.353 985.98 501.678 982.441 500.003C 977.785 497.769 975.923 492.744 971.639 490.138C 971.266 489.952 971.266 489.393 971.266 488.835C 970.894 486.415 969.404 484.554 967.728 482.693C 961.954 476.178 956.739 469.478 952.456 461.846C 951.152 459.613 949.103 459.055 946.868 458.868C 943.516 458.682 939.977 458.31 936.625 457.938C 934.204 457.566 931.783 457.007 929.175 456.449C 929.175 458.868 930.665 460.171 931.783 461.288C 936.066 465.755 939.605 470.781 942.771 475.806C 946.123 481.204 950.221 486.229 953.387 491.813C 959.161 502.236 965.12 512.473 970.149 523.268C 974.805 533.133 978.903 542.998 981.882 553.607C 985.049 564.961 986.166 576.687 989.332 588.041C 991.567 596.23 994.361 604.234 997.155 612.237C 998.644 616.518 1000.32 620.613 1002.37 624.522C 1008.7 637.365 1014.29 650.394 1020.99 663.236C 1024.91 670.868 1029.56 678.127 1034.59 685.199C 1039.99 693.017 1045.58 700.648 1051.17 708.465C 1056.94 716.469 1062.15 724.845 1068.49 732.29C 1075.38 740.293 1080.78 749.6 1088.23 757.045C 1089.53 758.348 1089.16 759.464 1087.3 759.837C 1086.18 760.023 1084.88 760.023 1083.76 759.837C 1080.59 759.837 1077.61 759.65 1074.45 759.65C 1058.43 760.395 1042.23 759.65 1026.39 757.231C 1020.44 756.3 1014.85 754.625 1008.7 754.625C 996.037 754.811 983.372 753.88 970.894 751.833C 957.857 749.786 945.192 746.621 932.9 741.968C 930.479 741.038 928.43 739.735 926.009 738.618C 925.078 738.06 923.774 737.873 923.402 739.176C 922.657 741.41 922.47 743.83 923.029 746.249C 923.588 748.11 925.636 748.111 927.126 748.483C 935.135 750.158 942.585 753.136 949.662 756.672C 956.553 760.209 961.768 765.42 965.307 772.121C 970.149 781.241 965.679 791.478 955.808 794.084C 951.525 795.201 947.241 796.318 942.771 797.062C 939.046 797.62 935.507 799.109 931.783 799.109C 917.069 799.668 902.356 801.343 887.643 801.157C 875.537 800.971 863.617 800.598 851.511 800.785C 827.113 800.971 802.715 800.971 778.317 799.109C 766.956 798.179 755.781 796.504 744.607 795.015C 733.618 793.526 722.63 791.292 711.641 789.059C 704.936 787.756 698.418 785.708 692.458 781.986C 684.263 776.774 681.283 768.212 688.361 761.139C 688.547 760.953 688.547 760.953 688.733 760.767C 689.664 759.464 690.409 757.975 689.478 756.672C 688.547 755.369 687.243 756.3 686.126 756.672C 677.745 758.348 669.736 757.789 662.659 752.578C 659.865 750.53 657.072 749.972 653.905 750.344C 643.289 751.647 632.86 751.089 622.244 751.089C 615.167 751.089 607.903 751.833 600.826 750.344C 598.963 749.972 597.846 751.089 596.356 752.205C 593.003 754.811 589.278 756.114 584.809 756.3C 570.84 756.858 557.431 754.625 544.58 749.786C 540.855 748.297 537.13 746.622 533.219 745.877C 529.866 745.319 527.631 743.457 526.7 740.479C 525.396 735.454 521.485 734.895 517.388 734.337C 515.153 733.965 512.918 734.523 510.869 735.454C 502.488 738.804 494.48 742.341 485.913 745.319C 482.374 746.621 478.835 747.552 475.483 749.413C 465.612 755.183 455.368 759.464 444.753 763.931C 438.606 766.537 432.088 768.212 425.756 770.26C 422.776 771.19 421.099 772.679 419.796 775.657C 417.933 780.683 414.581 784.964 410.111 788.128C 405.827 791.106 401.171 793.526 396.515 795.573C 387.389 799.482 378.077 802.46 368.392 804.321C 357.962 806.555 347.533 807.113 336.917 808.23C 321.086 809.905 305.255 812.138 289.238 811.952C 288.307 811.952 287.376 812.138 286.631 812.138C 272.662 813.627 258.694 814.558 244.726 813.627C 240.814 813.441 237.09 812.697 233.178 812.697C 221.631 812.697 210.829 810.091 199.841 806.927C 196.861 806.182 193.881 805.065 191.46 802.832C 186.99 798.551 183.265 793.712 180.844 787.942C 177.119 779.194 177.305 770.632 182.52 762.256C 185.872 757.045 189.783 752.391 194.812 748.669C 204.683 741.41 215.113 735.082 226.101 729.684C 227.964 728.753 229.826 727.823 231.688 726.706C 232.433 726.147 233.737 725.775 232.806 723.914C 230.385 723.914 227.964 724.1 225.542 724.472C 218.838 725.589 212.319 726.892 205.614 727.264C 192.95 728.009 180.285 727.823 167.62 727.264C 159.239 726.892 151.045 725.589 143.595 721.494C 140.429 719.819 137.635 717.586 134.469 716.097C 122.177 710.141 110.071 703.812 97.2198 698.601C 90.1425 695.622 82.6927 693.203 74.8704 692.458C 62.7645 691.342 51.776 687.061 41.3463 681.105C 34.269 677.196 29.4267 671.426 25.7018 664.539C 19.7419 653.558 16.762 641.459 14.7133 629.361C 13.2234 620.985 12.6646 612.61 11.1747 604.234C 9.87097 596.603 6.33232 589.902 2.79367 583.202C 3.16616 580.596 1.86245 579.107 0 578.176ZM 777.572 452.726C 780.552 453.098 783.345 452.912 785.953 452.168C 798.804 448.631 811.841 445.839 823.388 438.394C 830.465 433.927 836.425 428.53 841.268 421.829C 846.669 414.198 849.462 405.822 850.021 396.516C 850.766 384.976 849.835 373.622 847.786 362.268C 846.669 355.195 844.992 348.123 841.826 341.794C 838.101 333.977 833.073 326.904 827.672 320.203C 821.153 312.2 812.958 306.43 803.832 301.591C 800.852 300.102 798.059 299.543 794.893 300.288C 784.649 302.894 774.219 304.755 764.721 309.594C 762.672 310.711 760.437 311.642 758.202 312.386C 743.675 317.225 731.383 325.601 719.464 335.094C 717.601 336.583 716.67 338.444 716.111 340.677C 714.435 347.564 713.317 354.451 711.269 361.151C 708.661 370.086 709.593 378.834 714.435 387.023C 715.18 388.14 715.739 389.443 716.297 390.56C 720.953 399.494 726.168 408.242 732.873 415.873C 733.618 416.804 734.922 417.734 734.549 418.851C 733.432 421.643 735.667 422.574 737.343 423.504C 738.461 424.249 739.578 424.993 740.695 425.738C 741.999 426.668 742.93 427.785 741.068 429.274C 739.578 430.391 740.509 431.322 741.44 432.252C 742.185 432.811 742.93 433.183 743.675 433.741C 747.214 435.975 751.125 437.278 755.036 438.767C 756.899 439.511 758.947 440.07 757.644 442.861C 757.085 444.164 758.202 444.723 759.134 445.095C 762.859 446.398 766.77 447.887 770.867 447.887C 772.543 447.887 774.219 448.073 775.709 448.631C 778.503 449.004 778.503 449.004 777.572 452.726ZM 562.459 369.899C 562.645 372.878 562.459 375.297 563.018 377.903C 565.812 388.512 570.281 398.191 578.104 406.38C 584.622 413.267 592.258 418.107 600.639 421.829C 607.344 424.807 614.422 425.552 621.499 425.924C 627.459 426.296 633.418 426.668 639.192 425.179C 640.123 424.993 641.427 424.807 641.055 423.876C 639.937 420.526 642.358 420.898 644.221 420.526C 645.524 420.154 646.828 419.968 648.132 419.409C 650.18 418.665 652.602 418.293 652.602 415.315C 652.602 414.198 653.905 413.826 655.023 413.639C 656.885 413.081 658.748 412.523 660.61 411.964C 662.845 411.22 665.266 410.661 665.825 407.869C 666.011 406.567 667.501 406.194 668.619 405.822C 679.048 401.727 687.616 395.399 693.576 385.906C 695.624 382.556 697.673 379.02 700.28 375.856C 703.074 372.133 705.309 368.224 706.985 363.757C 709.965 356.126 710.896 347.936 712.945 339.933C 713.69 336.955 712.572 334.721 710.151 333.046C 705.868 330.254 701.957 326.718 696.928 325.043C 695.252 324.484 693.576 323.554 692.086 322.623C 683.146 316.853 673.275 312.944 664.149 307.919C 657.444 304.196 650.18 301.218 643.476 297.496C 636.585 293.587 629.694 289.679 623.175 285.398C 621.126 284.095 619.078 282.978 616.47 283.722C 612 285.398 607.344 286.887 603.806 290.051C 596.542 296.565 589.278 302.894 582.946 310.153C 580.711 312.758 578.476 315.364 576.8 318.342C 566.929 334.163 563.577 352.031 562.459 369.899ZM 726.541 483.437C 726.355 488.09 728.031 489.393 732.501 488.463C 732.873 488.463 733.059 488.276 733.432 488.276C 736.971 487.346 737.343 486.229 735.108 483.437C 734.177 482.507 733.432 481.39 732.314 480.459C 731.197 479.342 730.079 477.853 728.217 478.784C 726.541 479.529 726.727 481.204 726.727 482.693C 726.541 482.693 726.541 483.065 726.541 483.437Z"/>
</defs>
</svg>
